<svg width="499" height="29" viewBox="0 0 499 29" fill="none" xmlns="http://www.w3.org/2000/svg">
<path d="M17.3878 23.76H7.95583L6.44383 28.224H-0.000171848L9.14383 2.952H16.2718L25.4158 28.224H18.8998L17.3878 23.76ZM15.8038 19.008L12.6718 9.756L9.57583 19.008H15.8038ZM34.3548 1.584V28.224H28.1988V1.584H34.3548ZM44.972 1.584V28.224H38.816V1.584H44.972ZM64.9132 13.032V18.144H49.0732V13.032H64.9132ZM76.472 2.952V28.224H70.316V2.952H76.472ZM93.1732 7.92C95.5252 7.92 97.3972 8.688 98.7892 10.224C100.205 11.736 100.913 13.824 100.913 16.488V28.224H94.7932V17.316C94.7932 15.972 94.4452 14.928 93.7492 14.184C93.0532 13.44 92.1172 13.068 90.9412 13.068C89.7652 13.068 88.8292 13.44 88.1332 14.184C87.4372 14.928 87.0892 15.972 87.0892 17.316V28.224H80.9332V8.136H87.0892V10.8C87.7132 9.912 88.5532 9.216 89.6092 8.712C90.6652 8.184 91.8532 7.92 93.1732 7.92ZM120.671 13.032V18.144H104.831V13.032H120.671ZM138.026 28.476C135.65 28.476 133.466 27.924 131.474 26.82C129.506 25.716 127.934 24.18 126.758 22.212C125.606 20.22 125.03 17.988 125.03 15.516C125.03 13.044 125.606 10.824 126.758 8.856C127.934 6.888 129.506 5.352 131.474 4.248C133.466 3.144 135.65 2.592 138.026 2.592C140.402 2.592 142.574 3.144 144.542 4.248C146.534 5.352 148.094 6.888 149.222 8.856C150.374 10.824 150.95 13.044 150.95 15.516C150.95 17.988 150.374 20.22 149.222 22.212C148.07 24.18 146.51 25.716 144.542 26.82C142.574 27.924 140.402 28.476 138.026 28.476ZM138.026 22.86C140.042 22.86 141.65 22.188 142.85 20.844C144.074 19.5 144.686 17.724 144.686 15.516C144.686 13.284 144.074 11.508 142.85 10.188C141.65 8.844 140.042 8.172 138.026 8.172C135.986 8.172 134.354 8.832 133.13 10.152C131.93 11.472 131.33 13.26 131.33 15.516C131.33 17.748 131.93 19.536 133.13 20.88C134.354 22.2 135.986 22.86 138.026 22.86ZM166.615 7.92C168.967 7.92 170.839 8.688 172.231 10.224C173.647 11.736 174.355 13.824 174.355 16.488V28.224H168.235V17.316C168.235 15.972 167.887 14.928 167.191 14.184C166.495 13.44 165.559 13.068 164.383 13.068C163.207 13.068 162.271 13.44 161.575 14.184C160.879 14.928 160.531 15.972 160.531 17.316V28.224H154.375V8.136H160.531V10.8C161.155 9.912 161.995 9.216 163.051 8.712C164.107 8.184 165.295 7.92 166.615 7.92ZM197.568 17.856C197.568 18.432 197.532 19.032 197.46 19.656H183.528C183.624 20.904 184.02 21.864 184.716 22.536C185.436 23.184 186.312 23.508 187.344 23.508C188.88 23.508 189.948 22.86 190.548 21.564H197.1C196.764 22.884 196.152 24.072 195.264 25.128C194.4 26.184 193.308 27.012 191.988 27.612C190.668 28.212 189.192 28.512 187.56 28.512C185.592 28.512 183.84 28.092 182.304 27.252C180.768 26.412 179.568 25.212 178.704 23.652C177.84 22.092 177.408 20.268 177.408 18.18C177.408 16.092 177.828 14.268 178.668 12.708C179.532 11.148 180.732 9.948 182.268 9.108C183.804 8.268 185.568 7.848 187.56 7.848C189.504 7.848 191.232 8.256 192.744 9.072C194.256 9.888 195.432 11.052 196.272 12.564C197.136 14.076 197.568 15.84 197.568 17.856ZM191.268 16.236C191.268 15.18 190.908 14.34 190.188 13.716C189.468 13.092 188.568 12.78 187.488 12.78C186.456 12.78 185.58 13.08 184.86 13.68C184.164 14.28 183.732 15.132 183.564 16.236H191.268Z" fill="#2F327D"/>
<path d="M207.401 15.552C207.401 13.056 207.941 10.836 209.021 8.892C210.101 6.924 211.601 5.4 213.521 4.32C215.465 3.216 217.661 2.664 220.109 2.664C223.109 2.664 225.677 3.456 227.813 5.04C229.949 6.624 231.377 8.784 232.097 11.52H225.329C224.825 10.464 224.105 9.66 223.169 9.108C222.257 8.556 221.213 8.28 220.037 8.28C218.141 8.28 216.605 8.94 215.429 10.26C214.253 11.58 213.665 13.344 213.665 15.552C213.665 17.76 214.253 19.524 215.429 20.844C216.605 22.164 218.141 22.824 220.037 22.824C221.213 22.824 222.257 22.548 223.169 21.996C224.105 21.444 224.825 20.64 225.329 19.584H232.097C231.377 22.32 229.949 24.48 227.813 26.064C225.677 27.624 223.109 28.404 220.109 28.404C217.661 28.404 215.465 27.864 213.521 26.784C211.601 25.68 210.101 24.156 209.021 22.212C207.941 20.268 207.401 18.048 207.401 15.552ZM242.023 1.584V28.224H235.867V1.584H242.023ZM255.628 28.512C253.66 28.512 251.884 28.092 250.3 27.252C248.74 26.412 247.504 25.212 246.592 23.652C245.704 22.092 245.26 20.268 245.26 18.18C245.26 16.116 245.716 14.304 246.628 12.744C247.54 11.16 248.788 9.948 250.372 9.108C251.956 8.268 253.732 7.848 255.7 7.848C257.668 7.848 259.444 8.268 261.028 9.108C262.612 9.948 263.86 11.16 264.772 12.744C265.684 14.304 266.14 16.116 266.14 18.18C266.14 20.244 265.672 22.068 264.736 23.652C263.824 25.212 262.564 26.412 260.956 27.252C259.372 28.092 257.596 28.512 255.628 28.512ZM255.628 23.184C256.804 23.184 257.8 22.752 258.616 21.888C259.456 21.024 259.876 19.788 259.876 18.18C259.876 16.572 259.468 15.336 258.652 14.472C257.86 13.608 256.876 13.176 255.7 13.176C254.5 13.176 253.504 13.608 252.712 14.472C251.92 15.312 251.524 16.548 251.524 18.18C251.524 19.788 251.908 21.024 252.676 21.888C253.468 22.752 254.452 23.184 255.628 23.184ZM289.242 8.136V28.224H283.086V25.488C282.462 26.376 281.61 27.096 280.53 27.648C279.474 28.176 278.298 28.44 277.002 28.44C275.466 28.44 274.11 28.104 272.934 27.432C271.758 26.736 270.846 25.74 270.198 24.444C269.55 23.148 269.226 21.624 269.226 19.872V8.136H275.346V19.044C275.346 20.388 275.694 21.432 276.39 22.176C277.086 22.92 278.022 23.292 279.198 23.292C280.398 23.292 281.346 22.92 282.042 22.176C282.738 21.432 283.086 20.388 283.086 19.044V8.136H289.242ZM292.44 18.144C292.44 16.08 292.824 14.268 293.592 12.708C294.384 11.148 295.452 9.948 296.796 9.108C298.14 8.268 299.64 7.848 301.296 7.848C302.616 7.848 303.816 8.124 304.896 8.676C306 9.228 306.864 9.972 307.488 10.908V1.584H313.644V28.224H307.488V25.344C306.912 26.304 306.084 27.072 305.004 27.648C303.948 28.224 302.712 28.512 301.296 28.512C299.64 28.512 298.14 28.092 296.796 27.252C295.452 26.388 294.384 25.176 293.592 23.616C292.824 22.032 292.44 20.208 292.44 18.144ZM307.488 18.18C307.488 16.644 307.056 15.432 306.192 14.544C305.352 13.656 304.32 13.212 303.096 13.212C301.872 13.212 300.828 13.656 299.964 14.544C299.124 15.408 298.704 16.608 298.704 18.144C298.704 19.68 299.124 20.904 299.964 21.816C300.828 22.704 301.872 23.148 303.096 23.148C304.32 23.148 305.352 22.704 306.192 21.816C307.056 20.928 307.488 19.716 307.488 18.18ZM334.87 28.476C333.022 28.476 331.366 28.176 329.902 27.576C328.438 26.976 327.262 26.088 326.374 24.912C325.51 23.736 325.054 22.32 325.006 20.664H331.558C331.654 21.6 331.978 22.32 332.53 22.824C333.082 23.304 333.802 23.544 334.69 23.544C335.602 23.544 336.322 23.34 336.85 22.932C337.378 22.5 337.642 21.912 337.642 21.168C337.642 20.544 337.426 20.028 336.994 19.62C336.586 19.212 336.07 18.876 335.446 18.612C334.846 18.348 333.982 18.048 332.854 17.712C331.222 17.208 329.89 16.704 328.858 16.2C327.826 15.696 326.938 14.952 326.194 13.968C325.45 12.984 325.078 11.7 325.078 10.116C325.078 7.764 325.93 5.928 327.634 4.608C329.338 3.264 331.558 2.592 334.294 2.592C337.078 2.592 339.322 3.264 341.026 4.608C342.73 5.928 343.642 7.776 343.762 10.152H337.102C337.054 9.336 336.754 8.7 336.202 8.244C335.65 7.764 334.942 7.524 334.078 7.524C333.334 7.524 332.734 7.728 332.278 8.136C331.822 8.52 331.594 9.084 331.594 9.828C331.594 10.644 331.978 11.28 332.746 11.736C333.514 12.192 334.714 12.684 336.346 13.212C337.978 13.764 339.298 14.292 340.306 14.796C341.338 15.3 342.226 16.032 342.97 16.992C343.714 17.952 344.086 19.188 344.086 20.7C344.086 22.14 343.714 23.448 342.97 24.624C342.25 25.8 341.194 26.736 339.802 27.432C338.41 28.128 336.766 28.476 334.87 28.476ZM357.019 28.512C355.051 28.512 353.275 28.092 351.691 27.252C350.131 26.412 348.895 25.212 347.983 23.652C347.095 22.092 346.651 20.268 346.651 18.18C346.651 16.116 347.107 14.304 348.019 12.744C348.931 11.16 350.179 9.948 351.763 9.108C353.347 8.268 355.123 7.848 357.091 7.848C359.059 7.848 360.835 8.268 362.419 9.108C364.003 9.948 365.251 11.16 366.163 12.744C367.075 14.304 367.531 16.116 367.531 18.18C367.531 20.244 367.063 22.068 366.127 23.652C365.215 25.212 363.955 26.412 362.347 27.252C360.763 28.092 358.987 28.512 357.019 28.512ZM357.019 23.184C358.195 23.184 359.191 22.752 360.007 21.888C360.847 21.024 361.267 19.788 361.267 18.18C361.267 16.572 360.859 15.336 360.043 14.472C359.251 13.608 358.267 13.176 357.091 13.176C355.891 13.176 354.895 13.608 354.103 14.472C353.311 15.312 352.915 16.548 352.915 18.18C352.915 19.788 353.299 21.024 354.067 21.888C354.859 22.752 355.843 23.184 357.019 23.184ZM380.876 13.248H377.564V28.224H371.408V13.248H369.176V8.136H371.408V7.56C371.408 5.088 372.116 3.216 373.532 1.944C374.948 0.648 377.024 -4.76837e-07 379.76 -4.76837e-07C380.216 -4.76837e-07 380.552 0.0119994 380.768 0.0359991V5.256C379.592 5.184 378.764 5.352 378.284 5.76C377.804 6.168 377.564 6.9 377.564 7.956V8.136H380.876V13.248ZM394.965 23.004V28.224H391.833C389.601 28.224 387.861 27.684 386.613 26.604C385.365 25.5 384.741 23.712 384.741 21.24V13.248H382.293V8.136H384.741V3.24H390.897V8.136H394.929V13.248H390.897V21.312C390.897 21.912 391.041 22.344 391.329 22.608C391.617 22.872 392.097 23.004 392.769 23.004H394.965ZM427.23 8.136L421.794 28.224H414.99L411.822 15.192L408.546 28.224H401.778L396.306 8.136H402.462L405.306 22.5L408.69 8.136H415.206L418.626 22.428L421.434 8.136H427.23ZM428.354 18.144C428.354 16.08 428.738 14.268 429.506 12.708C430.298 11.148 431.366 9.948 432.71 9.108C434.054 8.268 435.554 7.848 437.21 7.848C438.626 7.848 439.862 8.136 440.918 8.712C441.998 9.288 442.826 10.044 443.402 10.98V8.136H449.558V28.224H443.402V25.38C442.802 26.316 441.962 27.072 440.882 27.648C439.826 28.224 438.59 28.512 437.174 28.512C435.542 28.512 434.054 28.092 432.71 27.252C431.366 26.388 430.298 25.176 429.506 23.616C428.738 22.032 428.354 20.208 428.354 18.144ZM443.402 18.18C443.402 16.644 442.97 15.432 442.106 14.544C441.266 13.656 440.234 13.212 439.01 13.212C437.786 13.212 436.742 13.656 435.878 14.544C435.038 15.408 434.618 16.608 434.618 18.144C434.618 19.68 435.038 20.904 435.878 21.816C436.742 22.704 437.786 23.148 439.01 23.148C440.234 23.148 441.266 22.704 442.106 21.816C442.97 20.928 443.402 19.716 443.402 18.18ZM460.167 11.484C460.887 10.38 461.787 9.516 462.867 8.892C463.947 8.244 465.147 7.92 466.467 7.92V14.436H464.775C463.239 14.436 462.087 14.772 461.319 15.444C460.551 16.092 460.167 17.244 460.167 18.9V28.224H454.011V8.136H460.167V11.484ZM488.346 17.856C488.346 18.432 488.31 19.032 488.238 19.656H474.306C474.402 20.904 474.798 21.864 475.494 22.536C476.214 23.184 477.09 23.508 478.122 23.508C479.658 23.508 480.726 22.86 481.326 21.564H487.878C487.542 22.884 486.93 24.072 486.042 25.128C485.178 26.184 484.086 27.012 482.766 27.612C481.446 28.212 479.97 28.512 478.338 28.512C476.37 28.512 474.618 28.092 473.082 27.252C471.546 26.412 470.346 25.212 469.482 23.652C468.618 22.092 468.186 20.268 468.186 18.18C468.186 16.092 468.606 14.268 469.446 12.708C470.31 11.148 471.51 9.948 473.046 9.108C474.582 8.268 476.346 7.848 478.338 7.848C480.282 7.848 482.01 8.256 483.522 9.072C485.034 9.888 486.21 11.052 487.05 12.564C487.914 14.076 488.346 15.84 488.346 17.856ZM482.046 16.236C482.046 15.18 481.686 14.34 480.966 13.716C480.246 13.092 479.346 12.78 478.266 12.78C477.234 12.78 476.358 13.08 475.638 13.68C474.942 14.28 474.51 15.132 474.342 16.236H482.046ZM494.473 28.512C493.393 28.512 492.505 28.2 491.809 27.576C491.137 26.928 490.801 26.136 490.801 25.2C490.801 24.24 491.137 23.436 491.809 22.788C492.505 22.14 493.393 21.816 494.473 21.816C495.529 21.816 496.393 22.14 497.065 22.788C497.761 23.436 498.109 24.24 498.109 25.2C498.109 26.136 497.761 26.928 497.065 27.576C496.393 28.2 495.529 28.512 494.473 28.512Z" fill="#00CBB8"/>
</svg>
