<svg width="18" height="16" viewBox="0 0 18 16" fill="none" xmlns="http://www.w3.org/2000/svg">
<path d="M8.86328 4.92023L11.44 7.49692L11.4522 7.36195C11.4522 6.00815 10.352 4.90796 8.99825 4.90796L8.86328 4.92023Z" fill="black"/>
<path d="M8.99795 3.27191C11.2556 3.27191 13.0879 5.10423 13.0879 7.3619C13.0879 7.8895 12.9816 8.39257 12.7976 8.85473L15.1902 11.2474C16.4254 10.2167 17.3988 8.88337 18 7.3619C16.5808 3.77091 13.092 1.22693 8.99798 1.22693C7.85278 1.22693 6.75669 1.43141 5.73828 1.79951L7.50515 3.56228C7.96727 3.38233 8.47034 3.27191 8.99795 3.27191Z" fill="black"/>
<path d="M0.817983 1.04294L2.68301 2.90798L3.05521 3.28018C1.70552 4.33539 0.638037 5.73827 0 7.36196C1.41515 10.953 4.90798 13.4969 8.99797 13.4969C10.2659 13.4969 11.4765 13.2515 12.5849 12.8057L12.9326 13.1534L15.317 15.5419L16.36 14.5031L1.86093 0L0.817983 1.04294ZM5.34153 5.56238L6.60533 6.82619C6.56852 7.00207 6.54398 7.17791 6.54398 7.36196C6.54398 8.71576 7.64417 9.81595 8.99797 9.81595C9.18202 9.81595 9.3579 9.79141 9.52968 9.7546L10.7935 11.0184C10.2495 11.2883 9.64421 11.452 8.99797 11.452C6.7403 11.452 4.90798 9.61963 4.90798 7.36196C4.90798 6.71576 5.07159 6.11043 5.34153 5.56238Z" fill="black"/>
</svg>
