<svg width="24" height="29" viewBox="0 0 24 29" fill="none" xmlns="http://www.w3.org/2000/svg">
<path fill-rule="evenodd" clip-rule="evenodd" d="M11.8305 2.52441C8.84068 2.52441 6.4082 5.01587 6.4082 8.07823C6.4082 11.1406 8.84068 13.632 11.8305 13.632C14.8204 13.632 17.2529 11.1406 17.2529 8.07823C17.2529 5.01587 14.8204 2.52441 11.8305 2.52441Z" fill="black" fill-opacity="0.54"/>
<path fill-rule="evenodd" clip-rule="evenodd" d="M11.8304 0C7.47454 0 3.94336 3.6168 3.94336 8.07828C3.94336 12.5398 7.47454 16.1566 11.8304 16.1566C16.1863 16.1566 19.7174 12.5398 19.7174 8.07828C19.7174 3.6168 16.1863 0 11.8304 0ZM11.8304 14.137C8.56344 14.137 5.91512 11.4245 5.91512 8.07828C5.91512 4.73211 8.56344 2.01957 11.8304 2.01957C15.0974 2.01957 17.7457 4.73211 17.7457 8.07828C17.7457 11.4245 15.0974 14.137 11.8304 14.137Z" fill="black" fill-opacity="0.54"/>
<path fill-rule="evenodd" clip-rule="evenodd" d="M5.11993 14.0244L0 23.2254H5.91528L8.87293 28.2744L11.8306 21.5967L13.9034 16.9168C13.2384 17.0798 12.5444 17.1667 11.8306 17.1667C9.1499 17.1667 6.74694 15.9491 5.11993 14.0244Z" fill="black" fill-opacity="0.54"/>
<path fill-rule="evenodd" clip-rule="evenodd" d="M18.5408 14.0244C17.6118 15.1233 16.4298 15.9917 15.0876 16.5346L12.3301 22.7254L14.7878 28.2743L17.7455 23.2254H23.6607L18.5408 14.0244Z" fill="black" fill-opacity="0.54"/>
</svg>
