<svg width="27" height="30" viewBox="0 0 27 30" fill="none" xmlns="http://www.w3.org/2000/svg">
<path d="M20.625 7.55859C19.6875 7.44141 18.3984 7.55859 16.7578 7.96875C15.3516 8.37891 14.1797 8.84766 13.1836 9.375C12.2461 8.84766 11.0742 8.37891 9.66797 7.96875C8.02734 7.55859 6.73828 7.44141 5.80078 7.55859C4.27734 7.85156 2.98828 8.67188 2.05078 10.0195C1.17188 11.25 0.585938 12.7734 0.292969 14.5898C0 16.2891 0 17.9883 0.351562 19.6289C0.820312 22.4414 1.75781 24.7266 3.16406 26.6016C4.80469 28.8867 6.91406 30 9.49219 30C10.0781 30 10.7812 29.8242 11.543 29.4141C12.0117 29.1211 12.5977 28.9453 13.1836 28.9453C13.8281 28.9453 14.4141 29.1211 14.8828 29.4141C15.6445 29.8242 16.3477 30 16.9336 30C19.5117 30 21.6211 28.8867 23.2617 26.6016C24.668 24.7266 25.6055 22.4414 26.0742 19.6289C26.4258 17.9883 26.4258 16.2891 26.1328 14.5898C25.8398 12.7734 25.2539 11.25 24.375 10.0195C23.4375 8.67188 22.1484 7.85156 20.625 7.55859ZM17.4023 5.15625C17.9297 4.62891 18.2812 3.92578 18.5156 2.98828C18.75 2.40234 18.8086 1.69922 18.8086 0.9375L18.75 0.0585938L17.8711 0C17.168 0 16.4648 0.117188 15.8203 0.292969C14.9414 0.527344 14.2383 0.9375 13.6523 1.40625C12.9492 2.16797 12.4805 3.22266 12.3633 4.62891C12.2461 5.33203 12.2461 5.97656 12.3633 6.50391L13.1836 6.5625C13.9453 6.5625 14.6484 6.50391 15.2344 6.26953C16.1719 6.03516 16.875 5.68359 17.4023 5.15625Z" fill="white"/>
</svg>
