<svg width="52" height="52" viewBox="0 0 52 52" fill="none" xmlns="http://www.w3.org/2000/svg">
<path d="M2.29026 24.9313L6.20598 31.3334C6.59697 32.0333 7.48898 32.3402 8.28732 32.0496L16.2727 28.9448C16.9716 28.6532 17.3761 27.961 17.3336 27.2148L16.8401 21.691C22.4275 19.7563 28.742 19.7676 34.4396 21.8613L33.8393 27.3745C33.7824 28.1198 34.1734 28.8196 34.8665 29.1247L42.7903 32.3835C43.5829 32.6895 44.4314 32.3496 44.8851 31.7077L48.924 25.3825C49.3284 24.6903 49.2367 23.8939 48.6459 23.2915C36.0417 10.441 15.41 10.1917 2.50933 22.8451C1.95716 23.3867 1.89927 24.2314 2.29026 24.9313Z" fill="#EE5B90"/>
</svg>
