<svg width="36" height="29" viewBox="0 0 36 29" fill="none" xmlns="http://www.w3.org/2000/svg">
<path d="M34.9453 15.2578C35.5781 14.625 35.5781 13.5703 34.9453 12.8672L23.1328 1.05469C22.0078 0 20.25 0.773438 20.25 2.25V9H10.6875C9.70312 9 9 9.77344 9 10.6875V17.4375C9 18.4219 9.70312 19.125 10.6875 19.125H20.25V25.875C20.25 27.4219 22.0781 28.125 23.1328 27.0703L34.9453 15.2578ZM13.5 26.7188V23.9062C13.5 23.4844 13.0781 23.0625 12.6562 23.0625H6.75C5.48438 23.0625 4.5 22.0781 4.5 20.8125V7.3125C4.5 6.11719 5.48438 5.0625 6.75 5.0625H12.6562C13.0781 5.0625 13.5 4.71094 13.5 4.21875V1.40625C13.5 0.984375 13.0781 0.5625 12.6562 0.5625H6.75C3.02344 0.5625 0 3.58594 0 7.3125V20.8125C0 24.5391 3.02344 27.5625 6.75 27.5625H12.6562C13.0781 27.5625 13.5 27.2109 13.5 26.7188Z" fill="#49BBBD"/>
</svg>
