<svg width="25" height="36" viewBox="0 0 25 36" fill="none" xmlns="http://www.w3.org/2000/svg">
<path d="M12.375 24.75C16.1016 24.75 19.125 21.7969 19.125 18V6.75C19.125 3.02344 16.1016 0 12.375 0C8.57812 0 5.625 3.02344 5.625 6.75V18C5.625 21.7969 8.57812 24.75 12.375 24.75ZM23.625 13.5H22.5C21.8672 13.5 21.375 14.0625 21.375 14.625V18C21.375 23.2734 16.8047 27.4922 11.4609 27C6.75 26.5078 3.375 22.3594 3.375 17.6484V14.625C3.375 14.0625 2.8125 13.5 2.25 13.5H1.125C0.492188 13.5 0 14.0625 0 14.625V17.5078C0 23.7656 4.42969 29.3906 10.6875 30.2344V32.625H6.75C6.11719 32.625 5.625 33.1875 5.625 33.75V34.875C5.625 35.5078 6.11719 36 6.75 36H18C18.5625 36 19.125 35.5078 19.125 34.875V33.75C19.125 33.1875 18.5625 32.625 18 32.625H14.0625V30.3047C20.0391 29.4609 24.75 24.2578 24.75 18V14.625C24.75 14.0625 24.1875 13.5 23.625 13.5Z" fill="#29B9E7"/>
</svg>
