<svg width="30" height="30" viewBox="0 0 30 30" fill="none" xmlns="http://www.w3.org/2000/svg">
<path fill-rule="evenodd" clip-rule="evenodd" d="M14.5763 0C6.5594 0 0 6.59071 0 14.6459C0 22.7014 6.5594 29.2917 14.5763 29.2917C15.9531 29.2917 17.0056 28.2342 17.0056 26.8507C17.0056 26.2 16.7629 25.6302 16.358 25.2234C15.9531 24.8166 15.7103 24.2468 15.7103 23.5961C15.7103 22.2127 16.7629 21.1551 18.1397 21.1551H21.0547C25.5086 21.1551 29.1526 17.4936 29.1526 13.0186C29.1525 5.85849 22.5935 0 14.5763 0ZM5.66857 14.6459C4.29172 14.6459 3.2392 13.5883 3.2392 12.2049C3.2392 10.8215 4.29172 9.7639 5.66857 9.7639C7.04535 9.7639 8.09795 10.8215 8.09795 12.2049C8.09795 13.5883 7.04535 14.6459 5.66857 14.6459ZM10.5273 8.13661C9.15048 8.13661 8.09795 7.07898 8.09795 5.69564C8.09795 4.31221 9.15048 3.25466 10.5273 3.25466C11.9041 3.25466 12.9567 4.31221 12.9567 5.69564C12.9567 7.07898 11.9041 8.13661 10.5273 8.13661ZM18.6252 8.13661C17.2484 8.13661 16.1958 7.07898 16.1958 5.69564C16.1958 4.31221 17.2484 3.25466 18.6252 3.25466C20.0021 3.25466 21.0546 4.31221 21.0546 5.69564C21.0546 7.07898 20.0021 8.13661 18.6252 8.13661ZM23.484 14.6459C22.1072 14.6459 21.0546 13.5883 21.0546 12.2049C21.0546 10.8215 22.1072 9.7639 23.484 9.7639C24.8608 9.7639 25.9133 10.8215 25.9133 12.2049C25.9133 13.5883 24.8608 14.6459 23.484 14.6459Z" fill="black" fill-opacity="0.54"/>
</svg>
